<?xml version="1.0" encoding="UTF-8" standalone="no"?>
<svg
   viewBox="0 0 4856.6366 562.89856"
   version="1.1"
   id="svg1"
   sodipodi:docname="nuget_icon.svg"
   width="4856.6367"
   height="562.89856"
   inkscape:version="1.4.2 (f4327f4, 2025-05-13)"
   inkscape:export-filename="nuget.png"
   inkscape:export-xdpi="11.725191"
   inkscape:export-ydpi="11.725191"
   xmlns:inkscape="http://www.inkscape.org/namespaces/inkscape"
   xmlns:sodipodi="http://sodipodi.sourceforge.net/DTD/sodipodi-0.dtd"
   xmlns="http://www.w3.org/2000/svg"
   xmlns:svg="http://www.w3.org/2000/svg"
   xmlns:rdf="http://www.w3.org/1999/02/22-rdf-syntax-ns#"
   xmlns:cc="http://creativecommons.org/ns#"
   xmlns:dc="http://purl.org/dc/elements/1.1/">
  <path
     id="text1"
     style="font-size:528.022px;font-family:Tahoma;-inkscape-font-specification:Tahoma;text-align:start;writing-mode:lr-tb;direction:ltr;text-anchor:start;fill:#1a1a1a;stroke-width:76.2234;stroke-linecap:round;stroke-linejoin:bevel;paint-order:stroke fill markers"
     d="m 691.7353,130.64825 v 390.85937 h 42.2832 v -149.5371 c 0,-24.92292 7.04629,-45.29232 21.14063,-61.10547 14.09433,-15.98504 31.45422,-23.97657 52.08008,-23.97657 40.90795,0 61.36328,27.50162 61.36328,82.50391 v 152.11523 h 42.2832 V 358.82208 c 0,-71.67486 -29.73581,-107.51367 -89.20703,-107.51367 -37.47031,0 -66.34681,16.67244 -86.62891,50.01757 H 734.0185 V 130.64825 Z m 753.6172,0 v 390.85937 h 42.2832 V 130.64825 Z m 255.7617,0 v 390.85937 h 42.2812 v -38.1582 h 1.0313 c 17.8757,29.56373 44.2602,44.3457 79.1523,44.3457 37.2984,0 66.6905,-13.23522 88.1758,-39.70507 21.4853,-26.64174 32.2285,-62.04895 32.2285,-106.22266 0,-39.70478 -9.6261,-71.33105 -28.8769,-94.87891 -19.079,-23.71973 -45.5494,-35.58007 -79.4102,-35.58007 -40.0485,0 -70.4718,17.53174 -91.2695,52.5957 h -1.0313 V 130.64825 Z m -106.2246,4.89844 c -7.5628,0 -14.0076,2.66384 -19.336,7.99218 -5.3283,5.15647 -7.9922,11.68718 -7.9922,19.59375 0,7.90658 2.6639,14.43924 7.9922,19.59571 5.3284,5.15646 11.7732,7.73437 19.336,7.73437 7.7347,0 14.2673,-2.66384 19.5957,-7.99218 5.5002,-5.32835 8.25,-11.77508 8.25,-19.3379 0,-7.90657 -2.7498,-14.43728 -8.25,-19.59375 -5.3284,-5.32834 -11.861,-7.99218 -19.5957,-7.99218 z m 1512.6484,0 c -7.5628,0 -14.0076,2.66384 -19.3359,7.99218 -5.3284,5.15647 -7.9922,11.68718 -7.9922,19.59375 0,7.90658 2.6638,14.43924 7.9922,19.59571 5.3283,5.15646 11.7731,7.73437 19.3359,7.73437 7.7347,0 14.2674,-2.66384 19.5957,-7.99218 5.5002,-5.32835 8.25,-11.77508 8.25,-19.3379 0,-7.90657 -2.7498,-14.43728 -8.25,-19.59375 -5.3283,-5.32834 -11.861,-7.99218 -19.5957,-7.99218 z m -975.8594,16.24218 v 369.71875 h 43.3145 V 381.76739 h 48.7285 c 41.0798,0 73.6513,-11.1729 97.7148,-33.51758 24.2354,-22.34468 36.3536,-51.04932 36.3536,-86.11328 0,-35.06396 -10.9152,-62.2199 -32.7442,-81.4707 -21.6571,-19.2508 -52.2522,-28.87696 -91.7851,-28.87696 z m 1655.2246,0 v 369.71875 h 97.9727 c 60.6744,0 109.059,-17.27395 145.1543,-51.82226 36.2671,-34.7202 54.4004,-80.61286 54.4004,-137.67774 0,-120.14562 -65.143,-180.21875 -195.4297,-180.21875 z m 689.1621,27.58789 -42.2832,13.66407 v 64.45508 h -45.3769 v 36.0957 h 45.3769 v 156.24023 c 0,51.56465 23.1173,77.34766 69.3536,77.34766 16.3288,0 29.4781,-2.74977 39.4472,-8.25 v -36.0957 c -7.7347,5.84399 -16.9312,8.76562 -27.5879,8.76562 -13.9224,0 -23.8903,-3.78093 -29.9062,-11.34375 -6.0159,-7.56281 -9.0235,-20.19653 -9.0235,-37.90039 V 293.59161 h 66.5176 v -36.0957 h -66.5176 z m -2301.0722,11.60157 h 50.791 c 57.7524,0 86.6289,24.40812 86.6289,73.22265 0,24.92292 -7.9075,44.2592 -23.7207,58.00977 -15.6413,13.57869 -38.4148,20.36719 -68.3223,20.36719 h -45.3769 z m 1655.2246,0 h 57.7519 c 100.723,0 151.084,47.35348 151.084,142.06054 0,47.61136 -13.491,84.39346 -40.4765,110.34766 -26.9855,25.95421 -64.7148,38.93164 -113.1856,38.93164 h -55.1738 z m -2714.3633,60.33008 c -35.9233,0 -63.2531,15.98499 -81.9882,47.95507 h -1.0313 v -41.76757 h -42.28319 v 264.01171 h 42.28319 V 370.93926 c 0,-24.92291 6.0171,-45.12045 18.0488,-60.58984 12.0318,-15.64127 27.3293,-23.46094 45.8926,-23.46094 40.0485,0 60.0722,25.95487 60.0722,77.86328 v 156.75586 h 42.2833 V 370.93926 c 0,-23.0322 6.2729,-42.79814 18.8203,-59.29882 12.7192,-16.50069 28.1027,-24.75196 46.1504,-24.75196 21.3133,0 36.439,6.53071 45.3769,19.59375 9.1098,13.06305 13.6641,34.20582 13.6641,63.42579 v 151.5996 h 42.2832 V 358.82208 c 0,-71.67486 -29.0464,-107.51367 -87.1426,-107.51367 -38.8454,0 -68.0656,18.21918 -87.6602,54.6582 -4.9845,-16.32881 -14.181,-29.47615 -27.5878,-39.44531 -13.4069,-10.14105 -29.1341,-15.21289 -47.1817,-15.21289 z m 1389.9258,0 c -34.5483,0 -63.5108,12.97743 -86.8867,38.93164 -23.2041,25.78232 -34.8067,59.21313 -34.8067,100.29297 0,43.48618 10.6573,77.26071 31.9707,101.32421 21.3134,23.89162 50.6196,35.83789 87.918,35.83789 38.1578,0 68.8389,-8.42117 92.043,-25.26562 v -39.70508 c -24.9229,19.59457 -52.2527,29.39063 -81.9883,29.39063 -26.4699,0 -47.267,-7.99153 -62.3926,-23.97657 -15.1256,-15.98504 -23.0332,-38.67455 -23.7207,-68.0664 h 186.4063 V 377.9002 c 0,-39.70477 -9.4543,-70.72954 -28.3614,-93.07422 -18.907,-22.34468 -45.6333,-33.51757 -80.1816,-33.51757 z m 441.6504,0 c -12.8912,0 -25.439,1.63267 -37.6426,4.89843 -12.0317,3.26576 -22.773,8.16575 -32.2266,14.69727 -9.4535,6.35964 -17.0173,14.35116 -22.6894,23.97656 -5.6721,9.45352 -8.5078,20.36863 -8.5078,32.74414 0,10.14105 1.4608,18.99187 4.3828,26.55469 3.0939,7.56281 7.5622,14.35326 13.4062,20.36914 6.0159,5.84399 13.4079,11.17167 22.1739,15.98438 8.9378,4.64081 19.2495,9.28105 30.9375,13.92187 8.4222,3.26576 16.2438,6.44714 23.4629,9.54102 7.3909,2.92199 13.7497,6.27328 19.0781,10.05468 5.5002,3.78141 9.7987,8.16386 12.8926,13.14844 3.2657,4.8127 4.8984,10.74385 4.8984,17.79102 0,24.75103 -18.5629,37.125 -55.6895,37.125 -27.673,0 -53.0263,-8.50711 -76.0586,-25.52344 v 45.37695 c 19.9384,10.48481 43.4852,15.72656 70.6426,15.72656 13.7506,0 26.8999,-1.54674 39.4473,-4.64062 12.5474,-3.09388 23.6344,-7.82005 33.2598,-14.17969 9.6254,-6.35964 17.2732,-14.35311 22.9453,-23.97851 5.844,-9.6254 8.7676,-20.97016 8.7676,-34.03321 0,-10.65669 -1.8046,-19.85124 -5.4141,-27.58593 -3.4377,-7.7347 -8.4236,-14.52515 -14.9551,-20.36914 -6.5315,-6.01588 -14.4371,-11.34356 -23.7187,-15.98438 -9.2817,-4.8127 -19.7671,-9.45294 -31.4551,-13.92188 -8.766,-3.43764 -16.5857,-6.61706 -23.461,-9.53906 -6.8752,-2.92199 -12.7205,-6.1893 -17.5332,-9.79883 -4.8127,-3.60952 -8.5077,-7.73418 -11.0859,-12.375 -2.4063,-4.64081 -3.6094,-10.39815 -3.6094,-17.27343 0,-5.50023 1.2031,-10.48615 3.6094,-14.95508 2.5782,-4.64082 6.1014,-8.59362 10.5703,-11.85938 4.6408,-3.26576 10.1423,-5.75774 16.502,-7.47656 6.3596,-1.8907 13.4918,-2.83594 21.3984,-2.83594 25.2667,0 47.6105,6.35885 67.0332,19.07813 v -42.79883 c -18.0476,-7.90658 -38.501,-11.85937 -61.3613,-11.85937 z m 362.2422,0 c -33.8608,0 -63.7685,8.25126 -89.7227,24.75195 v 43.31445 c 25.6105,-21.65715 54.3151,-32.48633 86.1133,-32.48633 36.2671,0 54.4004,22.42978 54.4004,67.29102 l -79.1524,11.08789 c -58.0961,8.07846 -87.1445,36.78115 -87.1445,86.11133 0,23.03221 7.392,41.51114 22.1738,55.43359 14.9538,13.92246 35.579,20.88281 61.877,20.88281 35.7515,0 62.8234,-15.81313 81.2148,-47.43945 h 1.0313 v 41.25195 h 42.2832 V 349.79669 c 0,-65.65899 -31.0248,-98.48828 -93.0742,-98.48828 z m 302.6836,0 c -37.8141,0 -66.6906,16.67244 -86.6289,50.01757 h -1.0313 v -43.83007 h -42.2812 v 264.01171 h 42.2812 V 370.93926 c 0,-24.23538 6.8764,-44.26106 20.627,-60.07421 13.9224,-15.98504 31.4542,-23.97657 52.5957,-23.97657 40.9079,0 61.3613,28.0172 61.3613,84.05078 v 150.56836 h 42.2832 V 360.11114 c 0,-35.23584 -7.6478,-62.13595 -22.9453,-80.69922 -15.2975,-18.73515 -37.3855,-28.10351 -66.2617,-28.10351 z m 635.0195,0 c -33.8608,0 -63.7685,8.25126 -89.7227,24.75195 v 43.31445 c 25.6105,-21.65715 54.3151,-32.48633 86.1133,-32.48633 36.2672,0 54.4004,22.42978 54.4004,67.29102 l -79.1523,11.08789 c -58.0962,8.07846 -87.1446,36.78115 -87.1446,86.11133 0,23.03221 7.392,41.51114 22.1739,55.43359 14.9537,13.92246 35.5789,20.88281 61.8769,20.88281 35.7515,0 62.8235,-15.81313 81.2149,-47.43945 h 1.0312 v 41.25195 h 42.2832 V 349.79669 c 0,-65.65899 -31.0247,-98.48828 -93.0742,-98.48828 z m 455.3144,0 c -34.5483,0 -63.5087,12.97743 -86.8847,38.93164 -23.2041,25.78232 -34.8067,59.21313 -34.8067,100.29297 0,43.48618 10.6574,77.26071 31.9707,101.32421 21.3134,23.89162 50.6176,35.83789 87.9161,35.83789 38.1578,0 68.8388,-8.42117 92.0429,-25.26562 v -39.70508 c -24.9229,19.59457 -52.2507,29.39063 -81.9863,29.39063 -26.4699,0 -47.2689,-7.99153 -62.3945,-23.97657 -15.1257,-15.98504 -23.0313,-38.67455 -23.7188,-68.0664 h 186.4063 V 377.9002 c 0,-39.70477 -9.4543,-70.72954 -28.3614,-93.07422 -18.907,-22.34468 -45.6352,-33.51757 -80.1836,-33.51757 z m -1912.0156,1.54687 c -15.2975,0 -29.1342,5.2437 -41.5097,15.72852 -12.3756,10.31293 -21.5721,24.75118 -27.5879,43.31445 h -1.0313 v -54.40234 h -42.2832 v 264.01171 h 42.2832 V 386.92364 c 0,-29.39185 6.0171,-52.595 18.0488,-69.61133 12.2037,-17.01633 27.3294,-25.52539 45.377,-25.52539 13.9225,0 24.5778,2.8357 31.9687,8.50781 v -43.83007 c -5.8439,-2.40635 -14.2651,-3.60938 -25.2656,-3.60938 z m -1217.4414,4.64063 v 264.01171 h 42.2832 V 257.49591 Z m 1512.6485,0 v 264.01171 h 42.2832 V 257.49591 Z m -1260.7559,29.39257 c 23.2041,0 41.5951,8.3372 55.1738,25.00977 13.5787,16.67257 20.3692,39.70385 20.3692,69.0957 0,34.89208 -7.3061,62.13591 -21.9161,81.73047 -14.4381,19.59457 -34.4618,29.39063 -60.0722,29.39063 -21.8291,0 -39.8764,-7.56187 -54.1426,-22.6875 -14.0943,-15.29752 -21.1426,-33.86042 -21.1426,-55.68946 v -36.86914 c 0,-25.78232 7.4779,-47.18093 22.4317,-64.19726 14.9537,-17.18822 34.7196,-25.78321 59.2988,-25.78321 z m 679.8809,0 c 20.6258,0 36.6967,6.7885 48.2128,20.36719 11.688,13.57869 17.6172,32.5732 17.7891,56.98047 h -142.5762 c 3.2658,-23.03221 11.8608,-41.683 25.7832,-55.94922 13.9225,-14.26622 30.8527,-21.39844 50.7911,-21.39844 z m 2196.9101,0 c 20.6259,0 36.6987,6.7885 48.2149,20.36719 11.6879,13.57869 17.6171,32.5732 17.789,56.98047 h -142.5762 c 3.2658,-23.03221 11.8588,-41.683 25.7813,-55.94922 13.9224,-14.26622 30.8527,-21.39844 50.791,-21.39844 z M 3360.4638,387.95489 v 26.29883 c 0,22.51656 -6.8764,41.1654 -20.627,55.94726 -13.5787,14.60999 -30.8526,21.91407 -51.8222,21.91407 -15.2975,0 -27.5856,-4.03873 -36.8672,-12.11719 -9.1098,-8.25034 -13.666,-18.82173 -13.666,-31.71289 0,-17.70386 4.9859,-29.9919 14.955,-36.86719 9.9692,-7.04717 24.7512,-11.94715 44.3457,-14.69726 z m 937.7031,0 v 26.29883 c 0,22.51656 -6.8764,41.1654 -20.6269,55.94726 -13.5787,14.60999 -30.8527,21.91407 -51.8223,21.91407 -15.2975,0 -27.5856,-4.03873 -36.8672,-12.11719 -9.1098,-8.25034 -13.666,-18.82173 -13.666,-31.71289 0,-17.70386 4.9859,-29.9919 14.9551,-36.86719 9.9691,-7.04717 24.7511,-11.94715 44.3457,-14.69726 z m -2271.9394,81.21484 c -7.9066,0 -14.6951,2.92164 -20.3672,8.76563 -5.5003,5.67211 -8.25,12.46061 -8.25,20.36719 0,7.90658 2.7497,14.69703 8.25,20.36914 5.6721,5.67211 12.4606,8.50781 20.3672,8.50781 8.0784,0 14.9548,-2.8357 20.6269,-8.50781 5.6721,-5.67211 8.5078,-12.46256 8.5078,-20.36914 0,-7.90658 -2.8357,-14.69508 -8.5078,-20.36719 -5.6721,-5.84399 -12.5485,-8.76563 -20.6269,-8.76563 z" />
  <defs
     id="defs1" />
  <sodipodi:namedview
     id="namedview1"
     pagecolor="#ffffff"
     bordercolor="#000000"
     borderopacity="0.25"
     inkscape:showpageshadow="2"
     inkscape:pageopacity="0.0"
     inkscape:pagecheckerboard="0"
     inkscape:deskcolor="#d1d1d1"
     inkscape:zoom="0.15278064"
     inkscape:cx="2150.1416"
     inkscape:cy="-22.908662"
     inkscape:window-width="1920"
     inkscape:window-height="1129"
     inkscape:window-x="4984"
     inkscape:window-y="-8"
     inkscape:window-maximized="1"
     inkscape:current-layer="svg1" />
  <title
     id="title1">nuget</title>
  <metadata
     id="metadata1">
    <rdf:RDF>
      <cc:Work
         rdf:about="">
        <dc:title>nuget</dc:title>
      </cc:Work>
    </rdf:RDF>
  </metadata>
  <path
     style="display:inline;fill:#ff6600;stroke:none;stroke-width:1.00176"
     d="m 88.218094,32.726662 c -23.426374,0 -42.400768,18.997154 -42.400768,42.404681 0,23.428727 18.974394,42.404677 42.400768,42.404677 23.405176,0 42.400766,-18.97595 42.400766,-42.404677 0,-23.407527 -18.99559,-42.404682 -42.400766,-42.404681 z M 283.12154,124.84967 c -72.12355,0 -130.63608,58.51734 -130.63608,130.66934 v 141.52634 c 0,72.17319 58.51253,130.64977 130.63608,130.64977 h 141.5322 c 72.16594,0 130.63803,-58.47658 130.63803,-130.64977 V 255.51901 c 0,-72.152 -58.47209,-130.66934 -130.63803,-130.66934 z m -31.37747,59.45029 c 29.27766,0 53.00145,23.72672 53.00145,53.00732 0,29.25941 -23.72379,53.00536 -53.00145,53.00536 -29.27767,0 -52.9995,-23.74595 -52.9995,-53.00536 0,-29.2806 23.72183,-53.00732 52.9995,-53.00732 z M 420.903,315.07692 c 46.83154,0 84.79958,37.99627 84.79958,84.81132 0,46.83626 -37.96804,84.80936 -84.79958,84.80936 -46.83154,0 -84.80153,-37.9731 -84.80153,-84.80936 0,-46.81505 37.96999,-84.81132 84.80153,-84.81132 z"
     id="path1" />
</svg>
