<?xml version="1.0" encoding="UTF-8" standalone="no"?>
<svg
   viewBox="0 0 276.09304 32"
   version="1.1"
   id="svg1"
   sodipodi:docname="nuget_icon.svg"
   width="276.09305"
   height="32"
   inkscape:version="1.4.2 (f4327f4, 2025-05-13)"
   inkscape:export-filename="nuget.png"
   inkscape:export-xdpi="11.725191"
   inkscape:export-ydpi="11.725191"
   xmlns:inkscape="http://www.inkscape.org/namespaces/inkscape"
   xmlns:sodipodi="http://sodipodi.sourceforge.net/DTD/sodipodi-0.dtd"
   xmlns="http://www.w3.org/2000/svg"
   xmlns:svg="http://www.w3.org/2000/svg"
   xmlns:rdf="http://www.w3.org/1999/02/22-rdf-syntax-ns#"
   xmlns:cc="http://creativecommons.org/ns#"
   xmlns:dc="http://purl.org/dc/elements/1.1/">
  <path
     id="text1"
     style="font-size:528.022px;font-family:Tahoma;-inkscape-font-specification:Tahoma;text-align:start;writing-mode:lr-tb;direction:ltr;text-anchor:start;fill:#1a1a1a;stroke-width:4.33319;stroke-linecap:round;stroke-linejoin:bevel;paint-order:stroke fill markers"
     d="M 39.324189,7.4271713 V 29.646983 h 2.403742 v -8.500976 c 0,-1.416834 0.400571,-2.574806 1.201815,-3.473761 0.801243,-0.908728 1.788129,-1.363035 2.96068,-1.363035 2.32556,0 3.488417,1.563429 3.488417,4.690232 v 8.64754 h 2.403741 v -9.248447 c 0,-4.074616 -1.690439,-6.112003 -5.071295,-6.112003 -2.130135,0 -3.771724,0.947806 -4.924733,2.84343 h -0.05862 V 7.4271713 Z m 42.84209,0 V 29.646983 H 84.57002 V 7.4271713 Z m 14.539697,0 V 29.646983 h 2.403627 v -2.169241 h 0.05863 c 1.016207,1.680657 2.516127,2.520991 4.499697,2.520991 2.12036,0 3.79126,-0.752403 5.01267,-2.257178 1.22141,-1.514545 1.83215,-3.527396 1.83215,-6.03861 0,-2.257162 -0.54723,-4.055071 -1.64162,-5.393734 -1.08461,-1.348434 -2.58942,-2.022678 -4.51435,-2.022678 -2.27671,0 -4.00623,0.996656 -5.188547,2.989993 h -0.05863 V 7.4271713 Z m -6.038721,0.2784695 c -0.429935,0 -0.796313,0.1514356 -1.099225,0.4543443 -0.302906,0.2931381 -0.454345,0.6643999 -0.454345,1.1138774 0,0.4494781 0.151439,0.8208505 0.454345,1.1139885 0.302912,0.293138 0.66929,0.439689 1.099225,0.439689 0.439707,0 0.811076,-0.151436 1.113988,-0.454345 0.312679,-0.302909 0.469001,-0.6693967 0.469001,-1.0993325 0,-0.4494775 -0.156322,-0.8207393 -0.469001,-1.1138774 C 91.478331,7.8570764 91.106962,7.7056408 90.667255,7.7056408 Z m 85.991955,0 c -0.42993,0 -0.79631,0.1514356 -1.09922,0.4543443 -0.30291,0.2931381 -0.45434,0.6643999 -0.45434,1.1138774 0,0.4494781 0.15143,0.8208505 0.45434,1.1139885 0.30291,0.293138 0.66929,0.439689 1.09922,0.439689 0.43971,0 0.81108,-0.151436 1.11399,-0.454345 0.31268,-0.302909 0.469,-0.6693967 0.469,-1.0993325 0,-0.4494775 -0.15632,-0.8207393 -0.469,-1.1138774 -0.30291,-0.3029087 -0.67428,-0.4543443 -1.11399,-0.4543443 z M 121.18296,8.6289861 V 29.646983 h 2.46237 v -7.944038 h 2.77015 c 2.33533,0 4.18697,-0.635164 5.55495,-1.905428 1.37775,-1.270264 2.06665,-2.902083 2.06665,-4.89542 0,-1.993337 -0.62051,-3.537115 -1.86146,-4.631496 -1.23118,-1.0943811 -2.97047,-1.6416149 -5.21786,-1.6416149 z m 94.09722,0 V 29.646983 h 5.56961 c 3.44926,0 6.19985,-0.982 8.25182,-2.946024 2.06173,-1.973795 3.09259,-4.582729 3.09259,-7.826788 0,-6.830111 -3.70329,-10.2451849 -11.10991,-10.2451849 z m 39.17791,1.5683329 -2.40375,0.776784 v 3.664181 h -2.57961 v 2.051991 h 2.57961 v 8.882039 c 0,2.931379 1.31419,4.397107 3.94266,4.397107 0.92827,0 1.67579,-0.15632 2.24252,-0.469001 v -2.05199 c -0.43971,0.332223 -0.96252,0.498313 -1.56834,0.498313 -0.79146,0 -1.35813,-0.214941 -1.70012,-0.644876 -0.342,-0.429936 -0.51297,-1.148145 -0.51297,-2.154585 v -8.457007 h 3.78143 v -2.051991 h -3.78143 z m -130.81276,0.659533 h 2.8874 c 3.28314,0 4.92473,1.387568 4.92473,4.162606 0,1.416833 -0.44953,2.516074 -1.34849,3.297775 -0.88918,0.77193 -2.18382,1.157846 -3.88402,1.157846 h -2.57962 z m 94.09722,0 h 3.28311 c 5.72597,0 8.58892,2.69198 8.58892,8.075944 0,2.70664 -0.76695,4.797651 -2.30103,6.273111 -1.53409,1.475461 -3.67895,2.21321 -6.43445,2.21321 h -3.13655 z M 63.43477,14.286533 c -2.042189,0 -3.59585,0.908725 -4.660915,2.726179 h -0.05863 v -2.374428 h -2.40374 v 15.008699 h 2.40374 v -8.559602 c 0,-1.416833 0.342064,-2.565035 1.026049,-3.444448 0.683991,-0.889185 1.553633,-1.333722 2.608931,-1.333722 2.276701,0 3.415021,1.475498 3.415021,4.426419 v 8.911353 h 2.403747 v -8.559602 c 0,-1.309349 0.356605,-2.433015 1.069907,-3.371056 0.723069,-0.938041 1.5976,-1.407114 2.623586,-1.407114 1.211632,0 2.071507,0.371262 2.579614,1.113877 0.51788,0.742617 0.776785,1.944554 0.776785,3.605668 v 8.618227 h 2.403741 v -9.248447 c 0,-4.074616 -1.651247,-6.112003 -4.953935,-6.112003 -2.208307,0 -3.869435,1.035736 -4.983361,3.107243 -0.283362,-0.92827 -0.80617,-1.675678 -1.568328,-2.242411 -0.762163,-0.576504 -1.656233,-0.864832 -2.682214,-0.864832 z m 79.01535,0 c -1.96402,0 -3.6105,0.737749 -4.93939,2.21321 -1.31912,1.465689 -1.97871,3.366184 -1.97871,5.701516 0,2.472129 0.60585,4.392164 1.81749,5.76014 1.21163,1.358206 2.87765,2.037334 4.99801,2.037334 2.16922,0 3.9134,-0.478731 5.23252,-1.436315 V 26.30524 c -1.41683,1.113924 -2.97049,1.670816 -4.66092,1.670816 -1.50478,0 -2.68706,-0.454307 -3.54693,-1.363035 -0.85987,-0.908727 -1.30941,-2.198594 -1.34849,-3.86948 h 10.59694 v -1.26044 c 0,-2.257161 -0.53747,-4.020876 -1.61231,-5.29114 -1.07484,-1.270264 -2.59419,-1.905428 -4.55821,-1.905428 z m 25.10721,0 c -0.73285,0 -1.44617,0.09282 -2.13993,0.278469 -0.68399,0.185654 -1.29461,0.464212 -1.83204,0.83552 -0.53742,0.361536 -0.96741,0.815843 -1.28986,1.363034 -0.32245,0.537419 -0.48366,1.157928 -0.48366,1.861459 0,0.576504 0.0831,1.079661 0.24916,1.509597 0.17588,0.429935 0.4299,0.815963 0.76212,1.157957 0.342,0.332223 0.76223,0.635094 1.26056,0.90869 0.5081,0.263823 1.09431,0.527615 1.75875,0.791439 0.47879,0.185654 0.92344,0.366511 1.33384,0.542394 0.42016,0.166111 0.78165,0.356627 1.08456,0.571594 0.31268,0.214968 0.55704,0.464104 0.73293,0.747471 0.18565,0.273595 0.27846,0.610773 0.27846,1.011394 0,1.407062 -1.05527,2.110505 -3.16587,2.110505 -1.57317,0 -3.01447,-0.483617 -4.32382,-1.450972 V 29.1047 c 1.13347,0.596047 2.47207,0.894033 4.01593,0.894033 0.7817,0 1.52922,-0.08793 2.24253,-0.263812 0.7133,-0.175883 1.34358,-0.444559 1.89077,-0.806096 0.54719,-0.361537 0.98196,-0.815954 1.30441,-1.363145 0.33222,-0.547191 0.49842,-1.192124 0.49842,-1.934741 0,-0.605818 -0.10259,-1.128515 -0.30778,-1.568221 -0.19543,-0.439707 -0.47887,-0.825735 -0.85018,-1.157958 -0.3713,-0.341994 -0.82073,-0.644865 -1.34837,-0.908689 -0.52765,-0.273596 -1.12373,-0.537387 -1.78818,-0.79144 -0.49834,-0.195425 -0.94288,-0.376171 -1.33373,-0.542282 -0.39084,-0.166111 -0.72314,-0.351853 -0.99673,-0.55705 -0.2736,-0.205196 -0.48366,-0.439677 -0.63022,-0.703502 -0.1368,-0.263823 -0.20519,-0.59112 -0.20519,-0.98197 0,-0.31268 0.0684,-0.596123 0.20519,-0.850176 0.14656,-0.263824 0.34685,-0.488535 0.6009,-0.674189 0.26383,-0.185654 0.57658,-0.327319 0.93812,-0.425032 0.36153,-0.107483 0.76699,-0.161219 1.21647,-0.161219 1.43638,0 2.70659,0.361492 3.81074,1.084565 v -2.433054 c -1.02598,-0.449478 -2.18872,-0.674189 -3.4883,-0.674189 z m 20.59296,0 c -1.92494,0 -3.62515,0.469073 -5.10061,1.407114 v 2.462367 c 1.45592,-1.231179 3.08774,-1.846803 4.89542,-1.846803 2.06174,0 3.09259,1.275102 3.09259,3.825401 l -4.4997,0.630331 c -3.30268,0.459249 -4.95405,2.090957 -4.95405,4.895309 0,1.309349 0.42023,2.359851 1.26055,3.151323 0.85011,0.791472 2.02262,1.187158 3.51763,1.187158 2.03242,0 3.57142,-0.898954 4.61694,-2.696866 h 0.0586 v 2.345116 h 2.40374 v -9.761528 c 0,-3.732622 -1.76371,-5.598922 -5.29114,-5.598922 z m 17.20715,0 c -2.14968,0 -3.79127,0.947806 -4.92474,2.84343 h -0.0586 v -2.491679 h -2.40363 v 15.008699 h 2.40363 v -8.559602 c 0,-1.377748 0.39091,-2.51618 1.17261,-3.415135 0.79147,-0.908728 1.78813,-1.363035 2.98999,-1.363035 2.32556,0 3.48831,1.592739 3.48831,4.77817 v 8.559602 h 2.40374 v -9.175166 c 0,-2.003108 -0.43477,-3.532342 -1.30441,-4.587638 -0.86964,-1.065067 -2.12531,-1.597646 -3.76688,-1.597646 z m 36.09997,0 c -1.92494,0 -3.62515,0.469073 -5.10061,1.407114 v 2.462367 c 1.45592,-1.231179 3.08774,-1.846803 4.89542,-1.846803 2.06174,0 3.09259,1.275102 3.09259,3.825401 l -4.4997,0.630331 c -3.30269,0.459249 -4.95405,2.090957 -4.95405,4.895309 0,1.309349 0.42023,2.359851 1.26056,3.151323 0.85009,0.791472 2.02261,1.187158 3.51761,1.187158 2.03243,0 3.57143,-0.898954 4.61696,-2.696866 h 0.0586 v 2.345116 h 2.40374 v -9.761528 c 0,-3.732622 -1.76371,-5.598922 -5.29114,-5.598922 z m 25.88399,0 c -1.96402,0 -3.61038,0.737749 -4.93927,2.21321 -1.31912,1.465689 -1.97872,3.366184 -1.97872,5.701516 0,2.472129 0.60586,4.392164 1.81749,5.76014 1.21164,1.358206 2.87754,2.037334 4.99791,2.037334 2.16922,0 3.91339,-0.478731 5.23251,-1.436315 V 26.30524 c -1.41683,1.113924 -2.97038,1.670816 -4.6608,1.670816 -1.50478,0 -2.68718,-0.454307 -3.54704,-1.363035 -0.85988,-0.908727 -1.3093,-2.198594 -1.34839,-3.86948 h 10.59694 v -1.26044 c 0,-2.257161 -0.53746,-4.020876 -1.6123,-5.29114 -1.07484,-1.270264 -2.5943,-1.905428 -4.55833,-1.905428 z m -108.69543,0.08794 c -0.86964,0 -1.65623,0.298097 -2.35976,0.894144 -0.70354,0.586276 -1.22635,1.407071 -1.56834,2.462367 h -0.0586 v -3.092698 h -2.40374 v 15.008699 h 2.40374 v -7.650912 c 0,-1.670886 0.34207,-2.989953 1.02605,-3.957308 0.69377,-0.967354 1.55364,-1.451083 2.57962,-1.451083 0.79148,0 1.39722,0.161206 1.81738,0.483658 v -2.491679 c -0.33222,-0.136798 -0.81095,-0.205188 -1.43632,-0.205188 z m -69.209846,0.263813 v 15.008699 h 2.403741 V 14.638284 Z m 85.991966,0 v 15.008699 h 2.40374 V 14.638284 Z m -71.67222,1.670927 c 1.31912,0 2.36462,0.473958 3.13655,1.421771 0.77193,0.947812 1.15796,2.257108 1.15796,3.927994 0,1.983566 -0.41534,3.53234 -1.2459,4.646264 -0.82078,1.113924 -1.9591,1.670816 -3.41502,1.670816 -1.24095,0 -2.26692,-0.429882 -3.07793,-1.289753 -0.801241,-0.869643 -1.201927,-1.924918 -1.201927,-3.165868 v -2.095959 c 0,-1.46569 0.425108,-2.682171 1.275207,-3.649525 0.8501,-0.977127 1.97376,-1.46574 3.37106,-1.46574 z m 38.65028,0 c 1.17255,0 2.08616,0.385917 2.74083,1.157846 0.66445,0.77193 1.00152,1.851741 1.01129,3.239261 h -8.10526 c 0.18566,-1.309349 0.67427,-2.369621 1.46574,-3.180635 0.79147,-0.811015 1.75393,-1.216472 2.8874,-1.216472 z m 124.89128,0 c 1.17256,0 2.08627,0.385917 2.74095,1.157846 0.66445,0.77193 1.00151,1.851741 1.01128,3.239261 h -8.10525 c 0.18565,-1.309349 0.67415,-2.369621 1.46563,-3.180635 0.79147,-0.811015 1.75393,-1.216472 2.88739,-1.216472 z m -76.25974,5.745485 v 1.495052 c 0,1.280035 -0.39091,2.340195 -1.17261,3.180524 -0.77193,0.830557 -1.75393,1.245784 -2.94602,1.245784 -0.86965,0 -1.56821,-0.229596 -2.09585,-0.688845 -0.51788,-0.469021 -0.7769,-1.06999 -0.7769,-1.802834 0,-1.00644 0.28345,-1.704998 0.85017,-2.095849 0.56674,-0.400621 1.40708,-0.679178 2.521,-0.835518 z m 53.30712,0 v 1.495052 c 0,1.280035 -0.39092,2.340195 -1.17261,3.180524 -0.77193,0.830557 -1.75394,1.245784 -2.94603,1.245784 -0.86964,0 -1.5682,-0.229596 -2.09585,-0.688845 -0.51788,-0.469021 -0.77689,-1.06999 -0.77689,-1.802834 0,-1.00644 0.28344,-1.704998 0.85018,-2.095849 0.56673,-0.400621 1.40706,-0.679178 2.52099,-0.835518 z m -129.1566,4.61695 c -0.44947,0 -0.83539,0.166092 -1.15784,0.498314 -0.31269,0.322452 -0.469,0.708369 -0.469,1.157847 0,0.449478 0.15631,0.835505 0.469,1.157957 0.32245,0.322452 0.70837,0.483657 1.15784,0.483657 0.45925,0 0.85016,-0.161205 1.17262,-0.483657 0.32245,-0.322452 0.48365,-0.708479 0.48365,-1.157957 0,-0.449478 -0.1612,-0.835395 -0.48365,-1.157847 -0.32246,-0.332222 -0.71337,-0.498314 -1.17262,-0.498314 z" />
  <defs
     id="defs1" />
  <sodipodi:namedview
     id="namedview1"
     pagecolor="#ffffff"
     bordercolor="#000000"
     borderopacity="0.25"
     inkscape:showpageshadow="2"
     inkscape:pageopacity="0.0"
     inkscape:pagecheckerboard="0"
     inkscape:deskcolor="#d1d1d1"
     inkscape:zoom="3.5314181"
     inkscape:cx="138.04652"
     inkscape:cy="15.999238"
     inkscape:window-width="1920"
     inkscape:window-height="1129"
     inkscape:window-x="4984"
     inkscape:window-y="-8"
     inkscape:window-maximized="1"
     inkscape:current-layer="svg1" />
  <title
     id="title1">nuget</title>
  <metadata
     id="metadata1">
    <rdf:RDF>
      <cc:Work
         rdf:about="">
        <dc:title>nuget</dc:title>
      </cc:Work>
    </rdf:RDF>
  </metadata>
  <path
     style="display:inline;fill:#ff6600;stroke:none;stroke-width:0.0569487"
     d="m 5.0150759,1.8604652 c -1.3317568,0 -2.4104247,1.0799618 -2.4104247,2.4106471 0,1.3318906 1.0786679,2.4106469 2.4104247,2.4106469 1.3305517,0 2.4104246,-1.0787563 2.4104246,-2.4106469 0,-1.3306853 -1.0798729,-2.4106472 -2.4104246,-2.4106471 z M 16.095066,7.09753 c -4.100124,0 -7.4264797,3.326629 -7.4264797,7.42837 v 8.045576 c 0,4.102945 3.3263557,7.427257 7.4264797,7.427257 h 8.045908 c 4.102534,0 7.426591,-3.324312 7.426591,-7.427257 V 14.5259 c 0,-4.101741 -3.324057,-7.42837 -7.426591,-7.42837 z M 14.3113,10.477196 c 1.664394,0 3.013059,1.348831 3.013059,3.013393 0,1.663356 -1.348665,3.013281 -3.013059,3.013281 -1.664395,0 -3.012948,-1.349925 -3.012948,-3.013281 0,-1.664562 1.348553,-3.013393 3.012948,-3.013393 z m 9.61645,7.434489 c 2.662308,0 4.820738,2.160035 4.820738,4.821405 0,2.662576 -2.15843,4.821294 -4.820738,4.821294 -2.662308,0 -4.820849,-2.158718 -4.820849,-4.821294 0,-2.66137 2.158541,-4.821405 4.820849,-4.821405 z"
     id="path1" />
</svg>
